<?xml version="1.0" encoding="utf-8"?>
<!-- Generator: Adobe Illustrator 26.4.1, SVG Export Plug-In . SVG Version: 6.00 Build 0)  -->
<svg version="1.1" xmlns="http://www.w3.org/2000/svg" xmlns:xlink="http://www.w3.org/1999/xlink" x="0px" y="0px"
	 viewBox="0 0 600 600" style="enable-background:new 0 0 600 600;" xml:space="preserve">
<style type="text/css">
	.st0{fill:none;stroke:#181818;stroke-linecap:square;}
	.st1{fill:#888888;}
	.st2{font-family:'Roboto-Regular';}
	.st3{font-size:11px;}
	.st4{enable-background:new    ;}
	.st5{letter-spacing:-2;}
	.st6{fill:none;stroke:#E7E7E7;}
	.st7{fill:#A2A2A2;}
	.st8{font-size:12px;}
	.st9{fill:#747474;}
	.st10{fill:none;stroke:#FA8C00;stroke-width:2;stroke-linecap:round;stroke-linejoin:round;}
	.st11{fill:none;stroke:#09BB9F;stroke-width:2;stroke-linecap:round;stroke-linejoin:round;}
	.st12{fill:none;stroke:#18A1CD;stroke-width:2;stroke-linecap:round;stroke-linejoin:round;}
	.st13{font-family:'RobotoCondensed-Bold';}
	.st14{font-size:22px;}
	.st15{fill:#181818;}
	.st16{font-size:14px;}
</style>
<g id="exportSvg">
	<line class="st0" x1="593.9" y1="547" x2="34.2" y2="547"/>
	<text transform="matrix(1 0 0 1 0 598)" class="st1 st2 st3">Source</text>
	<text transform="matrix(1 0 0 1 34.0688 598)" class="st1 st2 st3">:</text>
	<text transform="matrix(1 0 0 1 36.7329 598)" class="st4"><tspan x="0" y="0" class="st1 st2 st3 st5">​</tspan><tspan x="0" y="0" class="st1 st2 st3"> </tspan><tspan x="2.7" y="0" class="st1 st2 st3 st5">​</tspan></text>
	<text transform="matrix(1 0 0 1 39.4561 598)" class="st1 st2 st3">Economic Policy Institute</text>
	<text transform="matrix(1 0 0 1 163.0127 598)" class="st4"><tspan x="0" y="0" class="st1 st2 st3 st5">​</tspan><tspan x="0" y="0" class="st1 st2 st3"> </tspan><tspan x="2.7" y="0" class="st1 st2 st3 st5">​</tspan></text>
	<text transform="matrix(1 0 0 1 165.7358 598)" class="st1 st2 st3">•</text>
	<text transform="matrix(1 0 0 1 169.4419 598)" class="st4"><tspan x="0" y="0" class="st1 st2 st3 st5">​</tspan><tspan x="0" y="0" class="st1 st2 st3"> </tspan><tspan x="2.7" y="0" class="st1 st2 st3 st5">​</tspan></text>
	<text transform="matrix(1 0 0 1 172.165 598)" class="st1 st2 st3">Created with</text>
	<text transform="matrix(1 0 0 1 233.793 598)" class="st4"><tspan x="0" y="0" class="st1 st2 st3 st5">​</tspan><tspan x="0" y="0" class="st1 st2 st3"> </tspan><tspan x="2.7" y="0" class="st1 st2 st3 st5">​</tspan></text>
	<text transform="matrix(1 0 0 1 236.5161 598)" class="st1 st2 st3">Datawrapper</text>
	<line class="st6" x1="34.2" y1="487.4" x2="593.9" y2="487.4"/>
	<line class="st6" x1="34.2" y1="427.7" x2="593.9" y2="427.7"/>
	<line class="st6" x1="34.2" y1="368.1" x2="593.9" y2="368.1"/>
	<line class="st6" x1="34.2" y1="308.4" x2="593.9" y2="308.4"/>
	<line class="st6" x1="34.2" y1="248.8" x2="593.9" y2="248.8"/>
	<line class="st6" x1="34.2" y1="189.1" x2="593.9" y2="189.1"/>
	<line class="st6" x1="34.2" y1="129.5" x2="593.9" y2="129.5"/>
	<line class="st6" x1="34.2" y1="69.9" x2="593.9" y2="69.9"/>
	<text transform="matrix(1 0 0 1 1.4766 491.3577)" class="st7 st2 st8">400K</text>
	<text transform="matrix(1 0 0 1 1.4766 431.7155)" class="st7 st2 st8">800K</text>
	<text transform="matrix(1 0 0 1 2.1035 372.0731)" class="st7 st2 st8">1.2M</text>
	<text transform="matrix(1 0 0 1 2.1035 312.4308)" class="st7 st2 st8">1.6M</text>
	<text transform="matrix(1 0 0 1 12 252.7886)" class="st7 st2 st8">2M</text>
	<text transform="matrix(1 0 0 1 2.1035 193.1463)" class="st7 st2 st8">2.4M</text>
	<text transform="matrix(1 0 0 1 2.1035 133.504)" class="st7 st2 st8">2.8M</text>
	<text transform="matrix(1 0 0 1 0 73.8618)" class="st7 st2 st8">$3.2M</text>
	<text transform="matrix(1 0 0 1 52.6064 564)" class="st9 st2 st8">1950</text>
	<text transform="matrix(1 0 0 1 126.6233 564)" class="st9 st2 st8">1960</text>
	<text transform="matrix(1 0 0 1 200.6604 564)" class="st9 st2 st8">1970</text>
	<text transform="matrix(1 0 0 1 274.6772 564)" class="st9 st2 st8">1980</text>
	<text transform="matrix(1 0 0 1 348.7144 564)" class="st9 st2 st8">1990</text>
	<text transform="matrix(1 0 0 1 496.7683 564)" class="st9 st2 st8">2010</text>
	<text transform="matrix(1 0 0 1 422.7312 564)" class="st9 st2 st8">2000</text>
	<text transform="matrix(1 0 0 1 570.7852 564)" class="st9 st2 st8">2020</text>
	<path id="top-5_x25_" class="st10" d="M43.9,535.6l7.4,0l7.4-0.4l7.4-0.4l7.4-0.3l7.4-0.3l7.4-0.3l7.4-0.4l7.4-0.5l7.4-0.7l7.4,0
		l7.4,0.2l7.4-0.6l7.4-0.5l7.4-0.2l7.4-0.4l7.4-0.3l7.4-0.6l7.4-0.2l7.4-0.8l7.4-0.4l7.4-0.5l7.4-0.6l7.4-0.2l7.4,0.2l7.4-1.4
		l7.4-0.3l7.4,0.2l7.4-0.4l7.4-0.1l7.4-0.8l7.4-1.6l7.4,0.7l7.4-0.3l7.4,0l7.4-0.9l7.4-0.6l7.4-1l7.4-0.5l7.4-1.5l7.4-2.2l7.4-1.8
		l7.4,0.5l7.4,0.1l7.4,1.1l7.4-2.4l7.4,0.4l7.4,0.3l7.4-1l7.4-1.2l7.4-2.7l7.4-1.9l7.4-2.1l7.4-2.1l7.4,1.5l7.4,2.3l7.4-0.7l7.4-1.5
		l7.4,0.5l7.4-1.2l7.4-3.1l7.4,3.4l7.4,0.4l7.4-1.6l7.4-0.4l7.4-1.5l7.4,0.8l7.4-1.4l7.4-1.4l7.4,0.7l7.4-1l7.4-0.3l7.4-0.8l7.4-2.8
		"/>
	<path id="top-0.1_x25_" class="st11" d="M43.9,492.5l7.4-5.1l7.4,4.4l7.4-12.7l7.4,0.9l7.4,1.8l7.4,4.4l7.4,0.8l7.4-6.6l7.4-1.4
		l7.4,7.4l7.4,2.4l7.4-0.7l7.4-2.5l7.4,1.4l7.4,1.2l7.4-0.8l7.4-5.1l7.4-3.5l7.4-6.8l7.4,1.1l7.4-2.7l7.4-0.5l7.4,2.8l7.4,1.4
		l7.4-8.6l7.4-5.1l7.4-6.8l7.4-4.9l7.4,2.1l7.4-10.4l7.4,7.6l7.4,0.9l7.4-5.7l7.4-1.5l7.4-9.9l7.4-11l7.4-15.1l7.4-1.7l7.4-14.8
		l7.4-44.8l7.4-32.9l7.4,16l7.4-5.8l7.4,24.7l7.4-50.3l7.4,15.4l7.4,13l7.4-9.9l7.4-19.9l7.4-66.9l7.4-28.7l7.4-44.7l7.4-36.3
		l7.4,36.4l7.4,59.7l7.4-10.3l7.4-36.7l7.4-5.1l7.4-16.9l7.4-51.4l7.4,66.7l7.4,51.7l7.4-35.6l7.4-1.1L525,128l7.4,37.8l7.4-33.7
		l7.4-13.9l7.4,27.1l7.4-32.3l7.4,2.5l7.4-4.4l7.4-43"/>
	<path id="bottom-90_x25_" class="st12" d="M43.9,544.5l7.4-0.1l7.4-0.1l7.4-0.1l7.4-0.1l7.4-0.1l7.4-0.2l7.4,0l7.4-0.2l7.4-0.1
		l7.4,0l7.4,0.1l7.4-0.2l7.4-0.1l7.4,0l7.4-0.1l7.4-0.1l7.4-0.1l7.4-0.1l7.4-0.1l7.4,0l7.4-0.1l7.4-0.1l7.4,0l7.4,0l7.4-0.1l7.4,0
		l7.4,0.1l7.4,0.1l7.4-0.1l7.4-0.1l7.4-0.2l7.4,0l7.4,0.1l7.4,0l7.4,0.1l7.4,0l7.4-0.1l7.4,0l7.4-0.1l7.4,0l7.4,0l7.4,0l7.4,0
		l7.4,0.1l7.4-0.1l7.4,0l7.4,0l7.4,0l7.4-0.1l7.4-0.1l7.4-0.2l7.4-0.1l7.4-0.1l7.4,0l7.4,0l7.4,0l7.4,0l7.4,0.2l7.4,0l7.4-0.2
		l7.4,0.2l7.4-0.2l7.4,0l7.4,0l7.4,0l7.4,0l7.4-0.1l7.4-0.2l7.4,0l7.4-0.1l7.4-0.1l7.4-0.1l7.4-0.1"/>
	<text transform="matrix(1 0 0 1 0 22)" class="st13 st14">Pay for the top 0.1%, 5%, and bottom 90%, 1947-2020</text>
	<text transform="matrix(1 0 0 1 0 49)" class="st15 st2 st16">Average annual salaries for select wage groups</text>
</g>
<g id="ai2html-settings">
	<rect x="-450" style="fill:none;" width="400" height="418"/>
	<text id="ai2html-settings_00000021820821948752468560000002073890937294690481_" transform="matrix(1 0 0 1 -450 10.6499)"><tspan x="0" y="0" style="font-family:'MyriadPro-Regular'; font-size:15px;">ai2html-settings</tspan><tspan x="0" y="19" style="font-family:'MyriadPro-Regular'; font-size:15px;">settings_version: 0.111.0</tspan><tspan x="0" y="38" style="font-family:'MyriadPro-Regular'; font-size:15px;">image_format: auto</tspan><tspan x="0" y="57" style="font-family:'MyriadPro-Regular'; font-size:15px;">responsiveness: fixed</tspan><tspan x="0" y="76" style="font-family:'MyriadPro-Regular'; font-size:15px;">output: one-file</tspan><tspan x="0" y="95" style="font-family:'MyriadPro-Regular'; font-size:15px;">html_output_path: /ai2html-output/</tspan><tspan x="0" y="114" style="font-family:'MyriadPro-Regular'; font-size:15px;">html_output_extension: .html</tspan><tspan x="0" y="133" style="font-family:'MyriadPro-Regular'; font-size:15px;">image_output_path: </tspan><tspan x="0" y="152" style="font-family:'MyriadPro-Regular'; font-size:15px;">local_preview_template: </tspan><tspan x="0" y="171" style="font-family:'MyriadPro-Regular'; font-size:15px;">png_number_of_colors: 128</tspan><tspan x="0" y="190" style="font-family:'MyriadPro-Regular'; font-size:15px;">jpg_quality: 60</tspan><tspan x="0" y="209" style="font-family:'MyriadPro-Regular'; font-size:15px;">headline: </tspan><tspan x="0" y="228" style="font-family:'MyriadPro-Regular'; font-size:15px;">leadin: </tspan><tspan x="0" y="247" style="font-family:'MyriadPro-Regular'; font-size:15px;">notes: </tspan><tspan x="0" y="266" style="font-family:'MyriadPro-Regular'; font-size:15px;">sources: </tspan><tspan x="0" y="285" style="font-family:'MyriadPro-Regular'; font-size:15px;">credit: </tspan></text>
</g>
</svg>
